<svg xmlns="http://www.w3.org/2000/svg" width="512" height="512" viewBox="0 0 32 32"><metadata><rdf:RDF xmlns:rdf="http://www.w3.org/1999/02/22-rdf-syntax-ns#" xmlns:dc="http://purl.org/dc/elements/1.1/"><rdf:Description><dc:creator>RealFaviconGenerator</dc:creator><dc:source>https://realfavicongenerator.net</dc:source></rdf:Description></rdf:RDF></metadata><rect x="0" y="0" width="32" height="32" fill="#0B0F0A"></rect><g fill="#C8FF3D" transform="translate(7 5)">
    <rect x="3" y="0" width="3" height="3"></rect>
    <rect x="6" y="0" width="3" height="3"></rect>
    <rect x="9" y="0" width="3" height="3"></rect>
    <rect x="12" y="0" width="3" height="3"></rect>
    <rect x="0" y="3" width="3" height="3"></rect>
    <rect x="15" y="3" width="3" height="3"></rect>
    <rect x="0" y="6" width="3" height="3"></rect>
    <rect x="15" y="6" width="3" height="3"></rect>
    <rect x="0" y="9" width="3" height="3"></rect>
    <rect x="3" y="9" width="3" height="3"></rect>
    <rect x="6" y="9" width="3" height="3"></rect>
    <rect x="9" y="9" width="3" height="3"></rect>
    <rect x="12" y="9" width="3" height="3"></rect>
    <rect x="15" y="9" width="3" height="3"></rect>
    <rect x="0" y="12" width="3" height="3"></rect>
    <rect x="15" y="12" width="3" height="3"></rect>
    <rect x="0" y="15" width="3" height="3"></rect>
    <rect x="15" y="15" width="3" height="3"></rect>
    <rect x="0" y="18" width="3" height="3"></rect>
    <rect x="15" y="18" width="3" height="3"></rect>
  </g></svg>